<?xml version="1.0" standalone="no"?><!DOCTYPE svg PUBLIC "-//W3C//DTD SVG 1.1//EN" "http://www.w3.org/Graphics/SVG/1.1/DTD/svg11.dtd"><svg t="1668756366629" class="icon" viewBox="0 0 1024 1024" version="1.1" xmlns="http://www.w3.org/2000/svg" p-id="2963" width="32" height="32" xmlns:xlink="http://www.w3.org/1999/xlink"><path d="M957.3 677.4H81.5V214.3c0-16 12.9-28.9 28.9-28.9h818c16 0 28.9 12.9 28.9 28.9v463.1z" fill="#1296db" p-id="2964"></path><path d="M932.5 192c5.5 0 10 4.5 10 10v548.3c0 5.5-4.5 10-10 10h-837c-5.5 0-10-4.5-10-10V202c0-5.5 4.5-10 10-10h837m0-20h-837c-16.6 0-30 13.4-30 30v548.3c0 16.6 13.4 30 30 30h837c16.6 0 30-13.4 30-30V202c0-16.6-13.4-30-30-30z" fill="#1296db" p-id="2965"></path><path d="M438.817 884.458l28.636-121.772 19.468 4.578-28.636 121.772zM539.984 766.365l19.47-4.578 28.635 121.785-19.47 4.578z" fill="#1296db" p-id="2966"></path><path d="M687.3 890.2H345.5c-5.5 0-10-4.5-10-10s4.5-10 10-10h341.9c5.5 0 10 4.5 10 10s-4.5 10-10.1 10zM81.451 682.424l0.033-10 875.9 2.877-0.033 10z" fill="#1296db" p-id="2967"></path></svg>